<svg xmlns="http://www.w3.org/2000/svg" viewBox="0 0 24 24" width="24" height="24">
  <path fill="currentColor" d="M12 1C6.486 1 2 5.486 2 11s4.486 10 10 10 10-4.486 10-10S17.514 1 12 1zm0 18.5c-4.135 0-7.5-3.365-7.5-7.5s3.365-7.5 7.5-7.5 7.5 3.365 7.5 7.5-3.365 7.5-7.5 7.5zM9.975 9.307c-.19-.417-.025-.907.392-1.096.416-.19.906-.025 1.096.392.104.229.15.48.134.73-.025.445-.265.853-.65 1.06-.124.07-.253.104-.38.104-.285 0-.57-.148-.725-.433zm3.332-3.857c-.19-.416-.025-.907.392-1.096.416-.19.906-.025 1.096.392.104.229.15.48.134.73-.025.445-.265.853-.65 1.06-.124.07-.253.104-.38.104-.285 0-.57-.148-.725-.433zm4.118 4.054c-.19-.416-.025-.907.392-1.096.416-.19.906-.025 1.096.392.104.229.15.48.134.73-.025.445-.265.853-.65 1.06-.124.07-.253.104-.38.104-.285 0-.57-.148-.725-.433zm.215-1.71c.085-.204.267-.334.455-.334.105 0 .21.03.303.092.216.145.277.442.153.67l-.902 1.715a.484.484 0 0 1-.426.258h-.084a.482.482 0 0 1-.426-.258l-.902-1.715c-.124-.228-.062-.525.153-.67.093-.063.198-.092.303-.092.188 0 .37.13.455.334l.903 1.716z"/>
</svg>